<svg version="1.1" id="Layer_1" xmlns="http://www.w3.org/2000/svg" xmlns:xlink="http://www.w3.org/1999/xlink" x="0px" y="0px"
	 width="100%" viewBox="0 0 553 555" enable-background="new 0 0 553 555" xml:space="preserve">
<path fill="#98BEFC" opacity="1.000000" stroke="none" 
	d="
M486.000000,1.000001 
	C508.652283,1.000000 531.304565,1.000000 553.952271,1.000002 
	C553.947754,186.000000 553.947754,371.000000 553.947754,556.000000 
	C531.909424,556.000000 509.923370,556.000000 487.468658,555.531372 
	C487.000000,479.418182 487.028534,403.773621 486.973145,328.129181 
	C486.963409,314.820923 486.438110,301.512878 486.446655,288.204895 
	C486.456268,273.240082 486.961487,258.275574 486.973022,243.310745 
	C487.031647,167.333069 487.018097,91.355309 486.957123,15.377643 
	C486.953278,10.584843 486.333313,5.792537 486.000000,1.000001 
z"/>
<path fill="#C3F3DE" opacity="1.000000" stroke="none" 
	d="
M122.000000,556.000000 
	C101.645775,556.000000 81.291542,556.000000 60.468666,555.531372 
	C60.000011,370.375122 60.000004,185.687561 60.000000,1.000000 
	C80.687561,1.000000 101.375122,1.000000 122.531342,1.468657 
	C123.000000,126.454529 122.998428,250.971741 123.010551,375.488953 
	C123.010811,378.148438 123.168594,380.807892 123.177513,383.790833 
	C118.668129,391.423126 114.234131,398.731934 109.800133,406.040771 
	C110.091682,406.296906 110.383232,406.553070 110.674782,406.809235 
	C113.425079,405.152832 116.175369,403.496429 119.173096,402.124451 
	C122.187759,403.292969 123.254395,405.146210 123.033607,408.057465 
	C122.659233,412.994049 122.323441,417.945496 122.283463,422.893250 
	C122.163330,437.760162 122.193810,452.628357 122.033539,467.784424 
	C110.957626,478.422638 100.013702,488.772461 89.069778,499.122253 
	C89.307747,499.573914 89.545723,500.025543 89.783699,500.477203 
	C100.187843,500.477203 110.591988,500.477203 121.000755,500.875366 
	C121.336914,505.388275 121.919716,509.500916 121.954361,513.618164 
	C122.073227,527.744568 122.000000,541.872620 122.000000,556.000000 
z"/>
<path fill="#CAFBDA" opacity="1.000000" stroke="none" 
	d="
M59.531342,1.000000 
	C60.000004,185.687561 60.000011,370.375122 60.000008,555.531372 
	C40.346123,556.000000 20.692249,556.000000 1.044268,556.000000 
	C1.050163,371.000000 1.050163,185.999985 1.050163,1.000000 
	C20.421112,1.000000 39.741898,1.000000 59.531342,1.000000 
z"/>
<path fill="#9EC6F7" opacity="1.000000" stroke="none" 
	d="
M485.531311,1.000001 
	C486.333313,5.792537 486.953278,10.584843 486.957123,15.377643 
	C487.018097,91.355309 487.031647,167.333069 486.973022,243.310745 
	C486.961487,258.275574 486.456268,273.240082 486.446655,288.204895 
	C486.438110,301.512878 486.963409,314.820923 486.973145,328.129181 
	C487.028534,403.773621 487.000000,479.418182 487.000000,555.531372 
	C464.979095,556.000000 442.958221,556.000000 420.534058,555.586975 
	C420.414856,553.883972 420.962921,552.589844 420.942993,551.304565 
	C420.680481,534.398987 420.337891,517.494568 420.431946,500.538635 
	C430.445587,500.487396 440.042664,500.487396 449.724335,500.487396 
	C449.724335,498.274200 449.870392,497.110657 449.702484,495.994324 
	C447.030762,478.231476 443.557007,460.550751 441.775116,442.700653 
	C438.091125,405.796631 434.210205,368.855957 432.423187,331.833160 
	C430.190125,285.569794 432.160980,239.304428 438.032501,193.277359 
	C443.650543,149.237198 452.862061,106.032043 467.708221,64.115295 
	C468.226990,62.650688 468.549500,61.116589 469.335144,58.266624 
	C457.378296,64.641365 446.693268,70.338028 436.005096,75.563873 
	C436.001312,50.395359 436.000641,25.697680 436.000000,1.000000 
	C452.354218,1.000000 468.708466,1.000000 485.531311,1.000001 
z"/>
<path fill="#BDEBE3" opacity="1.000000" stroke="none" 
	d="
M123.252899,383.467377 
	C123.168594,380.807892 123.010811,378.148438 123.010551,375.488953 
	C122.998428,250.971741 123.000000,126.454529 123.000000,1.468657 
	C145.020889,1.000000 167.041794,1.000000 189.531342,1.468455 
	C189.992737,12.992348 190.087784,24.049120 189.943466,35.102768 
	C189.841400,42.920998 189.172318,50.735653 189.193588,58.550716 
	C189.221939,68.962128 189.852478,79.371651 189.895493,89.783340 
	C189.938690,100.234238 189.406113,110.687279 189.435272,121.138519 
	C189.477493,136.268829 190.017136,151.399200 189.958084,166.528030 
	C189.794373,208.475510 189.430756,250.422226 189.014709,292.662537 
	C176.618195,309.144623 164.109772,325.156403 152.163208,341.576965 
	C142.184982,355.292023 132.864609,369.485657 123.252899,383.467377 
z"/>
<path fill="#B6E3E8" opacity="1.000000" stroke="none" 
	d="
M189.146149,292.369232 
	C189.430756,250.422226 189.794373,208.475510 189.958084,166.528030 
	C190.017136,151.399200 189.477493,136.268829 189.435272,121.138519 
	C189.406113,110.687279 189.938690,100.234238 189.895493,89.783340 
	C189.852478,79.371651 189.221939,68.962128 189.193588,58.550716 
	C189.172318,50.735653 189.841400,42.920998 189.943466,35.102768 
	C190.087784,24.049120 189.992737,12.992348 190.000000,1.468455 
	C212.020889,1.000000 234.041794,1.000000 256.534546,1.427914 
	C257.337189,4.313107 257.964294,6.771651 257.953796,9.227472 
	C257.820648,40.397942 257.485779,71.567841 257.436340,102.738266 
	C257.407532,120.915482 257.869202,139.093018 257.959961,157.271149 
	C257.990204,163.327805 257.431732,169.385345 257.360077,175.445053 
	C257.261902,183.749176 257.282898,192.057251 257.424622,200.360703 
	C257.510529,205.396469 257.920746,210.426682 258.034393,215.735809 
	C242.743713,232.368927 227.487595,248.620041 212.511047,265.124817 
	C204.474701,273.981201 196.918839,283.273590 189.146149,292.369232 
z"/>
<path fill="#AFDAEC" opacity="1.000000" stroke="none" 
	d="
M258.185303,215.459396 
	C257.920746,210.426682 257.510529,205.396469 257.424622,200.360703 
	C257.282898,192.057251 257.261902,183.749176 257.360077,175.445053 
	C257.431732,169.385345 257.990204,163.327805 257.959961,157.271149 
	C257.869202,139.093018 257.407532,120.915482 257.436340,102.738266 
	C257.485779,71.567841 257.820648,40.397942 257.953796,9.227472 
	C257.964294,6.771651 257.337189,4.313107 257.003204,1.427914 
	C280.020905,1.000000 303.041779,1.000000 326.531342,1.468657 
	C327.023743,52.026066 327.047485,102.114815 326.910095,152.487930 
	C310.820160,167.019943 294.823242,181.192520 278.993439,195.549316 
	C271.885162,201.996124 265.111023,208.811340 258.185303,215.459396 
z"/>
<path fill="#A8D2F1" opacity="1.000000" stroke="none" 
	d="
M327.071198,152.203568 
	C327.047485,102.114815 327.023743,52.026066 327.000000,1.468657 
	C347.020905,1.000000 367.041779,1.000000 387.531342,1.468657 
	C388.007111,36.649925 388.014252,71.362534 387.823181,106.340714 
	C376.089935,115.063446 364.481506,123.422928 353.043549,132.009445 
	C344.274597,138.592300 335.720734,145.461639 327.071198,152.203568 
z"/>
<path fill="#A3CFEF" opacity="1.000000" stroke="none" 
	d="
M420.015381,500.589905 
	C420.337891,517.494568 420.680481,534.398987 420.942993,551.304565 
	C420.962921,552.589844 420.414856,553.883972 420.065399,555.586975 
	C401.312439,556.000000 382.624878,556.000000 363.468964,555.531372 
	C363.000702,539.951904 363.019775,524.841064 362.991425,509.730377 
	C362.980255,503.774292 361.225800,502.218231 355.296417,501.935028 
	C352.511749,501.802002 349.760284,500.973358 347.453369,500.360596 
	C357.245331,500.261292 366.577759,500.261292 376.705719,500.261292 
	C375.659637,497.587799 375.189117,496.023529 374.463562,494.588165 
	C368.636230,483.060425 362.760773,471.557007 357.252441,459.877380 
	C358.403503,457.907471 359.826782,456.128387 359.891266,454.301331 
	C360.154144,446.855408 359.870117,439.391754 360.045410,431.940674 
	C360.170807,426.610931 360.706482,421.290863 361.332031,416.174957 
	C376.054932,442.296326 383.082458,470.499634 387.019196,500.589905 
	C398.181427,500.589905 409.098389,500.589905 420.015381,500.589905 
z"/>
<path fill="#A2CBF5" opacity="1.000000" stroke="none" 
	d="
M388.021362,106.075142 
	C388.014252,71.362534 388.007111,36.649925 388.000000,1.468657 
	C403.687561,1.000000 419.375122,1.000000 435.531342,1.000000 
	C436.000641,25.697680 436.001312,50.395359 435.798401,75.830750 
	C419.737000,86.404022 403.879181,96.239578 388.021362,106.075142 
z"/>
<path fill="#B7E4E7" opacity="1.000000" stroke="none" 
	d="
M247.000000,556.000000 
	C225.979111,556.000000 204.958206,556.000000 183.403046,555.587036 
	C182.579208,553.055298 182.055740,550.938354 182.039352,548.817444 
	C181.954758,537.863892 182.206482,526.903748 181.909531,515.957581 
	C181.769150,510.782867 180.664856,505.634277 180.456909,500.375763 
	C202.276642,500.343292 223.636765,500.408905 245.018005,500.841248 
	C245.692749,504.541504 246.864792,507.867828 246.910751,511.209686 
	C247.116043,526.137390 247.000000,541.069458 247.000000,556.000000 
z"/>
<path fill="#B0DCEB" opacity="1.000000" stroke="none" 
	d="
M247.468658,556.000000 
	C247.000000,541.069458 247.116043,526.137390 246.910751,511.209686 
	C246.864792,507.867828 245.692749,504.541504 245.477707,500.743164 
	C266.610046,500.343750 287.303833,500.409180 308.022888,500.866516 
	C308.365417,503.710663 308.944519,506.161591 308.957489,508.615448 
	C309.040680,524.409912 309.000000,540.205078 309.000000,556.000000 
	C288.645782,556.000000 268.291534,556.000000 247.468658,556.000000 
z"/>
<path fill="#BDECE3" opacity="1.000000" stroke="none" 
	d="
M179.997299,500.473846 
	C180.664856,505.634277 181.769150,510.782867 181.909531,515.957581 
	C182.206482,526.903748 181.954758,537.863892 182.039352,548.817444 
	C182.055740,550.938354 182.579208,553.055298 182.934387,555.587036 
	C162.979111,556.000000 142.958206,556.000000 122.468658,556.000000 
	C122.000000,541.872620 122.073227,527.744568 121.954361,513.618164 
	C121.919716,509.500916 121.336914,505.388275 121.460403,500.776978 
	C141.276062,500.344940 160.636673,500.409393 179.997299,500.473846 
z"/>
<path fill="#AAD5F0" opacity="1.000000" stroke="none" 
	d="
M309.468658,556.000000 
	C309.000000,540.205078 309.040680,524.409912 308.957489,508.615448 
	C308.944519,506.161591 308.365417,503.710663 308.482666,500.769043 
	C318.944824,500.342590 328.972473,500.405518 339.136475,500.769562 
	C341.182373,500.870331 343.091827,500.669952 345.330048,500.390503 
	C346.103790,500.360901 346.548767,500.410431 346.993774,500.459961 
	C349.760284,500.973358 352.511749,501.802002 355.296417,501.935028 
	C361.225800,502.218231 362.980255,503.774292 362.991425,509.730377 
	C363.019775,524.841064 363.000702,539.951904 363.000305,555.531372 
	C345.312439,556.000000 327.624878,556.000000 309.468658,556.000000 
z"/>
<path fill="#0197B2" opacity="1.000000" stroke="none" 
	d="
M387.823181,106.340714 
	C403.879181,96.239578 419.737000,86.404022 435.801514,76.301582 
	C446.693268,70.338028 457.378296,64.641365 469.335144,58.266624 
	C468.549500,61.116589 468.226990,62.650688 467.708221,64.115295 
	C452.862061,106.032043 443.650543,149.237198 438.032501,193.277359 
	C432.160980,239.304428 430.190125,285.569794 432.423187,331.833160 
	C434.210205,368.855957 438.091125,405.796631 441.775116,442.700653 
	C443.557007,460.550751 447.030762,478.231476 449.702484,495.994324 
	C449.870392,497.110657 449.724335,498.274200 449.724335,500.487396 
	C440.042664,500.487396 430.445587,500.487396 420.431946,500.538635 
	C409.098389,500.589905 398.181427,500.589905 387.019196,500.589905 
	C383.082458,470.499634 376.054932,442.296326 361.258942,415.832947 
	C356.550781,408.800171 352.617188,401.973755 347.741882,395.903687 
	C335.695190,380.904785 321.301453,368.782288 302.717957,361.673584 
	C299.981110,360.598419 297.516327,359.797668 295.090118,358.893402 
	C278.215393,352.604187 260.819305,350.929565 242.559662,352.898193 
	C222.304703,354.428680 203.225388,359.012238 184.590134,366.923889 
	C171.185074,373.125275 157.932755,378.883667 145.171356,385.577942 
	C136.080750,390.346588 127.650581,396.374268 118.925667,401.840027 
	C116.175369,403.496429 113.425079,405.152832 110.674782,406.809235 
	C110.383232,406.553070 110.091682,406.296906 109.800133,406.040771 
	C114.234131,398.731934 118.668129,391.423126 123.177521,383.790833 
	C132.864609,369.485657 142.184982,355.292023 152.163208,341.576965 
	C164.109772,325.156403 176.618195,309.144623 189.014709,292.662537 
	C196.918839,283.273590 204.474701,273.981201 212.511047,265.124817 
	C227.487595,248.620041 242.743713,232.368927 258.034393,215.735809 
	C265.111023,208.811340 271.885162,201.996124 278.993439,195.549316 
	C294.823242,181.192520 310.820160,167.019943 326.910095,152.487930 
	C335.720734,145.461639 344.274597,138.592300 353.043549,132.009445 
	C364.481506,123.422928 376.089935,115.063446 387.823181,106.340714 
z"/>
<path fill="#23B573" opacity="1.000000" stroke="none" 
	d="
M347.453369,500.360626 
	C346.548767,500.410431 346.103790,500.360901 344.909912,500.287994 
	C342.440735,500.332550 340.720398,500.400513 339.000092,500.468445 
	C328.972473,500.405518 318.944824,500.342590 308.457397,500.377136 
	C287.303833,500.409180 266.610046,500.343750 245.456573,500.376404 
	C223.636765,500.408905 202.276642,500.343292 180.456909,500.375763 
	C160.636673,500.409393 141.276062,500.344940 121.455780,500.378845 
	C110.591988,500.477203 100.187843,500.477203 89.783699,500.477203 
	C89.545723,500.025543 89.307747,499.573914 89.069778,499.122253 
	C100.013702,488.772461 110.957626,478.422638 122.357529,467.642700 
	C143.901520,450.875946 164.989548,434.539276 186.449188,418.169312 
	C187.590454,417.865295 188.427078,417.709839 189.119980,417.307098 
	C206.382935,407.272552 224.356125,398.969849 244.396927,394.749603 
	C252.048264,394.378021 259.300964,393.468872 266.532501,393.613922 
	C279.255798,393.869202 291.036072,398.159424 302.687836,403.655426 
	C313.973724,410.739075 324.652344,418.177551 332.896912,428.341400 
	C341.242645,438.630035 348.926331,449.455719 356.900024,460.046173 
	C362.760773,471.557007 368.636230,483.060425 374.463562,494.588165 
	C375.189117,496.023529 375.659637,497.587799 376.705719,500.261292 
	C366.577759,500.261292 357.245331,500.261292 347.453369,500.360626 
z"/>
<path fill="#BCEBE2" opacity="1.000000" stroke="none" 
	d="
M186.077576,418.202637 
	C164.989548,434.539276 143.901520,450.875946 122.489517,467.354309 
	C122.193810,452.628357 122.163330,437.760162 122.283463,422.893250 
	C122.323441,417.945496 122.659233,412.994049 123.033607,408.057465 
	C123.254395,405.146210 122.187759,403.292969 119.173111,402.124451 
	C127.650581,396.374268 136.080750,390.346588 145.171356,385.577942 
	C157.932755,378.883667 171.185074,373.125275 184.759125,367.316406 
	C185.553070,384.511719 185.815323,401.357178 186.077576,418.202637 
z"/>
<path fill="#A9D5EE" opacity="1.000000" stroke="none" 
	d="
M357.252441,459.877380 
	C348.926331,449.455719 341.242645,438.630035 332.896912,428.341400 
	C324.652344,418.177551 313.973724,410.739075 303.032654,403.341248 
	C303.442902,401.978943 303.941376,401.207397 303.925507,400.446625 
	C303.657623,387.596954 303.325653,374.748657 303.007904,361.900024 
	C321.301453,368.782288 335.695190,380.904785 347.741882,395.903687 
	C352.617188,401.973755 356.550781,408.800171 360.986023,415.624451 
	C360.706482,421.290863 360.170807,426.610931 360.045410,431.940674 
	C359.870117,439.391754 360.154144,446.855408 359.891266,454.301331 
	C359.826782,456.128387 358.403503,457.907471 357.252441,459.877380 
z"/>
<path fill="#A3CFEF" opacity="1.000000" stroke="none" 
	d="
M339.136475,500.769592 
	C340.720398,500.400513 342.440735,500.332550 344.581177,500.367096 
	C343.091827,500.669952 341.182373,500.870331 339.136475,500.769592 
z"/>
<path fill="#B6E4E6" opacity="1.000000" stroke="none" 
	d="
M186.449188,418.169312 
	C185.815323,401.357178 185.553070,384.511719 185.121841,367.273743 
	C203.225388,359.012238 222.304703,354.428680 242.618301,353.296448 
	C243.380508,358.301880 243.804459,362.851166 243.874878,367.405914 
	C244.015442,376.497925 243.962036,385.592987 243.988739,394.686768 
	C224.356125,398.969849 206.382935,407.272552 189.119980,417.307098 
	C188.427078,417.709839 187.590454,417.865295 186.449188,418.169312 
z"/>
<path fill="#B0DDEA" opacity="1.000000" stroke="none" 
	d="
M244.396912,394.749603 
	C243.962036,385.592987 244.015442,376.497925 243.874878,367.405914 
	C243.804459,362.851166 243.380508,358.301880 243.057800,353.351868 
	C260.819305,350.929565 278.215393,352.604187 295.090118,358.893402 
	C297.516327,359.797668 299.981110,360.598419 302.717957,361.673584 
	C303.325653,374.748657 303.657623,387.596954 303.925507,400.446625 
	C303.941376,401.207397 303.442902,401.978943 302.838989,403.059631 
	C291.036072,398.159424 279.255798,393.869202 266.532501,393.613922 
	C259.300964,393.468872 252.048264,394.378021 244.396912,394.749603 
z"/>
</svg>