<?xml version="1.0" standalone="no"?>
<!DOCTYPE svg PUBLIC "-//W3C//DTD SVG 20010904//EN"
 "http://www.w3.org/TR/2001/REC-SVG-20010904/DTD/svg10.dtd">
<svg version="1.0" xmlns="http://www.w3.org/2000/svg"
 width="500.000000pt" height="500.000000pt" viewBox="0 0 500.000000 500.000000"
 preserveAspectRatio="xMidYMid meet">
<metadata>
Created by potrace 1.16, written by Peter Selinger 2001-2019
</metadata>
<g transform="translate(0.000000,500.000000) scale(0.100000,-0.100000)"
fill="#000000" stroke="none">
<path d="M4065 4393 c-918 -492 -1823 -1297 -2556 -2273 -204 -271 -525 -750
-503 -750 4 0 21 11 38 23 124 95 463 275 641 342 480 180 885 161 1207 -56
89 -60 224 -199 291 -300 73 -111 137 -247 186 -396 39 -117 91 -355 91 -413
l0 -30 280 0 c232 0 280 2 280 14 0 8 -7 49 -15 92 -39 212 -93 649 -120 979
-22 264 -30 870 -16 1125 33 587 120 1081 270 1550 28 85 49 155 48 156 -1 0
-56 -28 -122 -63z"/>
<path d="M2245 1479 c-246 -33 -538 -178 -852 -422 -150 -117 -306 -253 -453
-395 l-125 -121 1278 -1 c702 0 1277 2 1277 5 0 3 -27 60 -59 128 -174 359
-390 614 -623 733 -119 61 -305 91 -443 73z"/>
</g>
</svg>
